Coordinates
version=1
nRows=22
nColumns=24
inDegrees=yes

Units are S.I. units (second, meters, Newtons, ...)
Angles are in degrees.

endheader
time	pelvis_tilt	pelvis_list	pelvis_rotation	pelvis_tx	pelvis_ty	pelvis_tz	hip_flexion_r	hip_adduction_r	hip_rotation_r	knee_angle_r	ankle_angle_r	subtalar_angle_r	mtp_angle_r	hip_flexion_l	hip_adduction_l	hip_rotation_l	knee_angle_l	ankle_angle_l	subtalar_angle_l	mtp_angle_l	lumbar_extension	lumbar_bending	lumbar_rotation
      0.46100000	      0.79112195	      3.61359232	      1.39605611	     -0.76112925	      1.00504495	      0.25761096	     21.66770682	     -1.64737970	     -7.51710050	     -6.56189059	      1.26884169	     -7.20790567	     12.45159713	    -16.09554588	      7.07902548	      3.47474976	     -4.47393862	      8.33685149	     -8.15933900	      4.50031871	     -6.34692222	     -5.38147970	     -2.73338201
      0.46516667	      0.84584268	      3.61131427	      1.43574202	     -0.75514385	      1.00463812	      0.25772123	     21.53992091	     -1.57654423	     -7.34803488	     -6.70407229	      1.32128011	     -7.18448674	     12.45398592	    -16.27253478	      7.04005673	      3.54831015	     -4.96504887	      8.34530907	     -8.15020301	      4.51915296	     -6.36534511	     -5.36034688	     -2.75044485
      0.46933333	      0.94134703	      3.60023572	      1.45528489	     -0.74910726	      1.00431391	      0.25786247	     21.34670244	     -1.48455978	     -7.08723183	     -6.86415978	      1.25992656	     -7.36021617	     12.47447296	    -16.46564936	      6.98992408	      3.51117537	     -5.51644524	      8.40681418	     -7.90984240	      4.64987900	     -6.40729304	     -5.29151955	     -2.85226110
      0.47350000	      0.98080711	      3.60184369	      1.48167670	     -0.74303339	      1.00395696	      0.25801106	     21.20675094	     -1.40732676	     -6.77919160	     -7.07423509	      1.19387421	     -7.56402704	     12.50759016	    -16.57451516	      6.95455348	      3.51792199	     -6.11531511	      8.40575452	     -7.76435709	      4.77836054	     -6.37643626	     -5.26382938	     -2.88780821
      0.47766667	      1.03284207	      3.60132783	      1.48969262	     -0.73694277	      1.00364163	      0.25817497	     21.06230729	     -1.32569826	     -6.45278016	     -7.35380116	      1.07575355	     -7.76976295	     12.54930097	    -16.67948709	      6.92192404	      3.51358568	     -6.74586254	      8.39202514	     -7.62904818	      4.91209476	     -6.36792274	     -5.22599524	     -2.91246025
      0.48183333	      1.07465665	      3.60250718	      1.49584350	     -0.73079951	      1.00336086	      0.25834609	     20.91574986	     -1.24545659	     -6.10999486	     -7.65663375	      0.90062722	     -8.01356915	     12.60342161	    -16.73929003	      6.89015051	      3.46600450	     -7.44105052	      8.33798205	     -7.45740003	      5.07262340	     -6.33495536	     -5.18807546	     -2.92874858
      0.48600000	      1.13354669	      3.60752782	      1.49026756	     -0.72463943	      1.00313163	      0.25852360	     20.75214906	     -1.16913341	     -5.75352569	     -8.00147795	      0.69028723	     -8.26561072	     12.66402195	    -16.79668010	      6.86563981	      3.41360562	     -8.17769117	      8.25512949	     -7.28302060	      5.24395807	     -6.31851046	     -5.15241962	     -2.93274888
      0.49016667	      1.17605350	      3.57932580	      1.50257717	     -0.71839065	      1.00294458	      0.25868520	     20.57798482	     -1.06381951	     -5.42533000	     -8.33456752	      0.41806400	     -8.58665307	     12.80738018	    -16.78794857	      6.79398775	      3.26711357	     -9.00664019	      8.15561938	     -6.99543841	      5.65401809	     -6.25773857	     -5.05713811	     -2.90663613
      0.49433333	      1.23612984	      3.58661786	      1.48771588	     -0.71218595	      1.00279532	      0.25888982	     20.40244076	     -0.98968879	     -5.04628609	     -8.72091127	      0.12032671	     -8.89379329	     12.96593003	    -16.77139766	      6.76777483	      3.13426113	     -9.88116422	      8.00905046	     -6.74484551	      6.13567930	     -6.23566443	     -5.02367875	     -2.88850730
      0.49850000	      1.27325219	      3.61070493	      1.47674340	     -0.70595349	      1.00266098	      0.25907433	     20.26506055	     -0.94750949	     -4.74550974	     -9.16453781	     -0.11861935	     -9.02815747	     14.42821264	    -16.69431109	      6.75589668	      2.98174950	    -10.81193361	      7.73573634	     -6.53282395	     10.97396441	     -6.17960011	     -5.01850932	     -2.85667216
      0.50266667	      1.34137799	      3.64299000	      1.44035004	     -0.69974748	      1.00260236	      0.25929414	     20.09761542	     -0.90390695	     -4.37514139	     -9.62646422	     -0.44243505	     -9.30256136	     14.41799278	    -16.63378275	      6.76538006	      2.87506243	    -11.76776554	      7.44047877	     -6.38883380	     11.01732834	     -6.17478849	     -5.01326465	     -2.84342264
      0.50683333	      1.38044848	      3.64413499	      1.43307945	     -0.69347732	      1.00256283	      0.25950311	     19.92512418	     -0.83621125	     -4.03559263	    -10.04127628	     -0.76769278	     -9.63261645	     14.41326985	    -16.46215215	      6.71808126	      2.63072210	    -12.88672946	      7.20002442	     -6.02988582	     11.14507252	     -6.10327466	     -4.96947719	     -2.78523995
      0.51100000	      1.43127331	      3.66108404	      1.40547123	     -0.68723630	      1.00256464	      0.25972632	     19.76867591	     -0.78939812	     -3.72827960	    -10.52337802	     -1.07879376	     -9.87708141	     14.41503819	    -16.27116248	      6.69064102	      2.37065378	    -14.05321379	      6.88984931	     -5.66635057	     11.34317038	     -6.06168581	     -4.94189073	     -2.72559343
      0.51516667	      1.52992854	      3.66810190	      1.38915715	     -0.68101890	      1.00268553	      0.25993936	     19.55287724	     -0.74221195	     -3.47812093	    -10.99839627	     -1.43734255	    -10.09783897	     14.42938582	    -16.07626337	      6.63673346	      2.06354236	    -15.31219106	      6.55879282	     -5.19896799	     11.97122222	     -6.09154939	     -4.89608601	     -2.63604577
      0.51933333	      1.57074651	      3.69035715	      1.36301251	     -0.67480936	      1.00274615	      0.26017482	     19.41743466	     -0.71296991	     -3.22471157	    -11.51888329	     -1.72786503	    -10.31210359	     14.44234672	    -15.77263697	      6.59801047	      1.73353487	    -16.65180322	      6.13769207	     -4.77274434	     12.68190704	     -6.03974674	     -4.87412337	     -2.56244511
      0.52350000	      1.61087143	      3.72580095	      1.31932199	     -0.66864923	      1.00282580	      0.26043062	     19.30171272	     -0.69782090	     -2.96295251	    -12.08065358	     -1.95236537	    -10.51615987	     14.47862803	    -15.42784151	      6.57677888	      1.41431791	    -18.04214585	      5.58953067	     -4.55039635	     17.74590634	     -5.99489941	     -4.87008088	     -2.51261667
      0.52766667	      1.63686073	      3.75027582	      1.29550222	     -0.66250027	      1.00293141	      0.26066470	     19.20663247	     -0.68819038	     -2.79160320	    -12.66575527	     -2.13107496	    -10.59000985	     14.47335665	    -15.00583452	      6.52443274	      1.04148710	    -19.54877968	      5.07717172	     -4.13105318	     17.81271835	     -5.93248093	     -4.84599830	     -2.44867925
      0.53183333	      1.67474171	      3.77840124	      1.26849783	     -0.65639211	      1.00308743	      0.26093242	     19.08751248	     -0.68071322	     -2.60674724	    -13.22542075	     -2.30304815	    -10.69879447	     14.46308336	    -14.54521694	      6.46175109	      0.63354182	    -21.13139448	      4.49116635	     -3.68033602	     17.92585438	     -5.88720568	     -4.84403666	     -2.37326104
      0.53600000	      1.72343305	      3.78581765	      1.24591980	     -0.65034565	      1.00326735	      0.26119024	     18.97054744	     -0.66001606	     -2.47611024	    -13.81532840	     -2.44749015	    -10.80804321	     14.44288511	    -14.04145159	      6.36354389	      0.20524665	    -22.80526049	      3.92532617	     -3.21377305	     18.11800622	     -5.87527105	     -4.79448459	     -2.28369071
      0.54016667	      1.75986921	      3.80377961	      1.22703566	     -0.64432294	      1.00347591	      0.26147650	     18.85439595	     -0.65191154	     -2.34313811	    -14.38259208	     -2.52980768	    -10.86810026	     14.42005892	    -13.48527624	      6.26353067	     -0.22174644	    -24.52533001	      3.23706360	     -2.78976233	     18.31462123	     -5.83782534	     -4.78389797	     -2.20607474
      0.54433333	      1.81247397	      3.80119589	      1.20682163	     -0.63838892	      1.00369904	      0.26175919	     18.74082247	     -0.62838888	     -2.25777370	    -14.98776756	     -2.58855452	    -10.93866583	     14.37830156	    -12.89531719	      6.12898038	     -0.66828149	    -26.32473445	      2.58892980	     -2.34576615	     18.62910283	     -5.84670713	     -4.72203199	     -2.10229340
      0.54850000	      1.85563229	      3.79845306	      1.19335909	     -0.63247672	      1.00395927	      0.26207777	     18.60582725	     -0.59991435	     -2.14403933	    -15.52959104	     -2.61263536	    -11.04018885	     13.65190245	    -12.26649252	      5.97764024	     -1.10610996	    -28.14004057	      1.75709863	     -2.03443927	     23.36134814	     -5.83460251	     -4.68999783	     -1.98629641
